<svg width="20" height="20" viewBox="0 0 20 20" fill="none" xmlns="http://www.w3.org/2000/svg">
<path d="M18.4124 11.9256V8.61398H18.0317C16.4202 8.61398 14.9829 8.88246 13.8002 9.22777C13.6595 8.95344 13.5054 8.67379 13.3555 8.41059C13.4201 8.3543 13.484 8.29656 13.5456 8.23734C14.4518 7.36563 15.0139 6.15715 15.0133 4.82551C15.014 3.49391 14.4518 2.28543 13.5456 1.41395C12.6393 0.540508 11.3835 0 10.0004 0C8.61724 0 7.36142 0.540508 6.45579 1.41398C5.54954 2.28543 4.98744 3.49391 4.98744 4.82555C4.98744 6.15719 5.54954 7.36566 6.45579 8.23738C6.51731 8.2966 6.58062 8.35523 6.64579 8.41062C6.4954 8.67383 6.3413 8.95348 6.20061 9.22781C5.01727 8.8825 3.58114 8.61402 1.96962 8.61402H1.58896V11.9256C0.439749 11.9462 0 12.8583 0 13.9815C0 15.1047 0.439749 16.0169 1.58896 16.0374V18.6734L1.95562 18.6857H1.96597C2.08106 18.6895 3.128 18.7329 4.54643 18.9158C5.9643 19.0981 7.75422 19.422 9.34504 19.978L9.40774 20H10.5936L10.6563 19.978C12.2976 19.4041 14.1527 19.0779 15.5907 18.8988C16.3105 18.8094 16.9256 18.7557 17.3605 18.7247C17.5779 18.7091 17.7502 18.6995 17.8678 18.693C17.9263 18.6904 17.9707 18.688 18.0012 18.6871C18.0158 18.6862 18.0274 18.6857 18.0341 18.6857H18.045L18.4123 18.6734V16.0374C19.5615 16.016 20 15.1047 20 13.9815C20.0001 12.8583 19.5616 11.9467 18.4124 11.9256ZM1.62982 15.3055C1.61704 15.3055 1.60361 15.3055 1.589 15.3049C1.32773 15.3023 0.761323 15.2363 0.761323 13.9815C0.761323 12.7264 1.32773 12.6605 1.589 12.6581C1.60361 12.6572 1.61704 12.6572 1.62982 12.6572C1.89353 12.6572 2.14019 12.7299 2.34971 12.8542C2.74312 13.087 3.005 13.5055 3.005 13.9815C3.005 14.4575 2.74312 14.8758 2.34971 15.1086C2.14019 15.2331 1.89353 15.3055 1.62982 15.3055ZM8.97051 11.182V19.0829C7.42477 18.6092 5.80229 18.3348 4.50751 18.1721C3.55375 18.0532 2.77968 17.9971 2.34971 17.972V15.9184C3.17617 15.6335 3.76628 14.8743 3.76628 13.9815C3.76628 13.0887 3.17613 12.3292 2.34971 12.0446V9.35238C4.33269 9.40688 6.02217 9.88113 7.23537 10.3575C7.88035 10.6095 8.39071 10.8619 8.73602 11.0501C8.82498 11.0987 8.90351 11.1427 8.97051 11.1817V11.182V11.182ZM10.5229 19.2464C10.5029 19.2529 10.4821 19.2602 10.462 19.2675H9.53935C9.51926 19.2602 9.49917 19.2529 9.47783 19.2464V11.4217H10.5229V19.2464V19.2464ZM10.0004 8.93289C8.84077 8.93289 7.79261 8.48941 7.02402 7.76836C7.01063 7.75547 6.99724 7.74313 6.98319 7.73027C6.56601 7.32809 6.23591 6.84477 6.01969 6.30605C6.7688 6.17004 7.45703 5.89805 8.07092 5.5627C9.10569 4.99816 9.93458 4.2557 10.5095 3.65453C10.758 3.3948 10.9584 3.16121 11.107 2.97891C11.3464 3.27586 11.7075 3.71141 12.1192 4.16309C12.4889 4.56848 12.8988 4.98676 13.3056 5.3341C13.5084 5.50824 13.7112 5.66473 13.9122 5.79398C13.9804 5.83707 14.048 5.87633 14.1157 5.91355C13.9177 6.61027 13.5346 7.23285 13.0182 7.73027C13.0041 7.74316 12.9908 7.75637 12.9768 7.76926C12.2069 8.49031 11.1588 8.93289 10.0004 8.93289ZM17.6517 17.972C17.2217 17.9971 16.4476 18.0532 15.4926 18.1721C14.1991 18.3339 12.5766 18.6092 11.0309 19.0829C11.0309 19.0829 11.0309 19.0829 11.0303 19.0829V11.1811C11.0309 11.1811 11.0309 11.1811 11.0309 11.1811C11.3622 10.9897 11.9706 10.6667 12.7959 10.3452C14.0066 9.87383 15.6845 9.40602 17.6517 9.35238V12.0446C16.8252 12.3292 16.2345 13.0887 16.2345 13.9815C16.2345 14.8743 16.8252 15.6335 17.6517 15.9184V17.972H17.6517ZM18.4124 15.3049C18.3972 15.3055 18.3838 15.3055 18.371 15.3055C18.1073 15.3055 17.8612 15.234 17.6517 15.1094C17.2583 14.8758 16.9952 14.4575 16.9952 13.9815C16.9952 13.5055 17.2583 13.087 17.6517 12.8533C17.8612 12.7291 18.1073 12.6572 18.371 12.6572C18.3838 12.6572 18.3972 12.6572 18.4124 12.6581C18.6743 12.6613 19.2394 12.7282 19.2394 13.9815C19.2394 15.2348 18.6743 15.3017 18.4124 15.3049Z" fill="#347EFF"/>
<path d="M8.35172 6.77884C8.63193 6.77884 8.85908 6.5602 8.85908 6.29048C8.85908 6.02077 8.63193 5.80212 8.35172 5.80212C8.07151 5.80212 7.84436 6.02077 7.84436 6.29048C7.84436 6.5602 8.07151 6.77884 8.35172 6.77884Z" fill="#347EFF"/>
<path d="M11.649 6.77884C11.9292 6.77884 12.1563 6.5602 12.1563 6.29048C12.1563 6.02077 11.9292 5.80212 11.649 5.80212C11.3688 5.80212 11.1416 6.02077 11.1416 6.29048C11.1416 6.5602 11.3688 6.77884 11.649 6.77884Z" fill="#347EFF"/>
</svg>
